<svg xmlns="http://www.w3.org/2000/svg" height="800" width="1200" viewBox="-45 -21.267425 390 127.60455"><path d="M299.5474 26.5842l-.4266 1.9143-3.9327 1.063c-.8743.2362-1.708 1.0594-2.1276 1.5952L275.197 53.912l-6.7001 22.3321c-.3508 1.167.111 1.835.8514 2.0201l4.6783 1.1687-.6364 1.9143h-23.395l.6363-1.9143 4.361-1.0612c1.1793-.289 1.8227-.9642 2.2317-2.3409l6.7001-22.5436-5.8487-22.0113c-.2803-1.0541-.5623-1.9267-1.6993-2.2334l-2.7657-.7439.4248-1.9143h19.9912l-.4248 1.9143-3.4039.9572c-1.1898.3349-1.4683.9466-1.1687 2.1258l4.7859 18.715 14.2482-18.9282c.2679-.3561.4265-.744.4265-1.063 0-.423-.3543-.7262-.8514-.8496l-3.8286-.9572.5323-1.9143z"/><path d="M252.9713 39.0244h-2.6582l-2.3392-7.1233c-.43-1.3114-1.0647-1.701-2.3391-1.701h-5.8488l-13.7176 46.0444c-.349 1.1634-.0089 1.828 1.063 2.1259l3.8268 1.063-.638 1.9143h-22.861l.6381-1.9144 4.0384-.9554c1.7927-.4248 2.1911-.9765 2.66-2.5542l13.6119-45.7236h-6.806c-1.0558 0-1.8879.6786-2.5524 1.5935l-4.7858 6.5926h-2.6582l4.2534-13.1835h1.701c.4231.9502 1.0718 1.382 2.0202 1.382h28.6057c1.5952 0 2.1276-.4266 2.7657-1.382h1.8086zm-42.4273-.6376h-2.66l-2.5524-6.8042c-.386-1.0365-1.1722-1.382-2.1259-1.382h-10.846l-6.168 20.8409h10.3156c1.0612 0 1.7028-.5236 2.445-1.5953l2.8697-4.1477h2.66l-4.8916 16.589h-2.66l.1075-5.8487c.0194-1.0559-.6363-1.382-1.7028-1.382h-10.208l-6.8042 22.9702h14.9921c2.0095 0 2.7763-.386 3.8304-1.7028l5.9528-7.444h2.8733l-6.062 14.3557h-1.9144c-.5324-1.0629-1.2868-1.4877-3.1906-1.4877h-34.3487l.64-1.9161 4.1459-1.0612c1.07-.275 1.7204-.9624 2.1276-2.3391l13.187-44.5567c.252-.8585-.0335-1.6165-.638-1.8068l-3.7212-1.1705.5306-1.9143h29.6686c1.003 0 1.8068-.4248 2.3391-1.382h1.7028z"/><path d="M299.015 12.2281c-24.8863 5.6743-55.4803 8.6127-81.456 8.6127-64.8652 0-110.3773-8.826-129.6246-13.3968L6.799 84.2183l-6.5944.8514 23.8199-72.5225c-3.7934 2.0042-16.5856 5.3164-22.4361 5.743-1.865.134-1.902-.892-1.063-1.382 5.6338-3.2981 8.3166-5.907 10.8462-12.3374 11.701 2.8468 20.5235.638 31.1563-3.2963L20.9416 62.3127 78.3645 0c36.5785 7.8036 75.535 11.0576 105.4892 11.0576 27.934 0 52.4872-4.3997 65.0767-9.5698 17.7472 10.571 38.0645 9.6686 49.6616 8.9317 1.6852-.1057 1.8967 1.4737.423 1.8086"/><path d="M174.0687 26.5842l-.5323 1.9143-4.4668 1.2762c-.8602.245-1.2797.7545-1.5953 1.8068l-13.1852 44.236c-.3931 1.322-.6893 2.1663.9571 2.6599l3.1906.9554-.6381 1.9143h-21.1599l.6363-1.9143 3.0848-.9554c1.7187-.5341 2.2493-1.1652 2.6582-2.5542l13.0795-44.4474c.2733-.9255-.0775-1.5865-.7438-1.8086l-3.5096-1.1687.5305-1.9143zm-31.5837 13.504c0 8.3165-6.596 15.5279-17.3329 15.0996-1.858-.0722-4.4756-.4266-6.166-.9572 0 10.1657 3.12 20.5235 9.1433 20.5235 3.7229 0 4.821-3.1165 5.3164-5.7412.0828-.4266.43-.7403.9589-.2133 1.4278 1.4278 2.6582 3.4144 2.6582 6.3811 0 6.2401-3.9415 9.0376-9.8907 9.0376-15.0714 0-15.7536-21.6729-13.291-34.985.1357-.7334.4283-.848.9571-.5324 1.9196 1.1528 4.1354 1.8086 7.2308 1.8086 4.8757 0 9.4623-3.8693 9.4623-10.8462 0-6.9751-5.7923-11.2709-14.354-11.2709L103.035 76.0321c-.1392.4671-.2132.8532-.2132 1.1687 0 .631.2538.9836.9571 1.1705l4.042 1.0611-.6399 1.9161H86.0211l.6381-1.916 3.1888-.9555c.98-.2943 1.4525-.8743 1.9161-2.4449l14.0367-47.6397c-6.085 1.2868-9.0411 3.5308-9.0411 7.0175 0 2.0077.4548 2.956 1.0647 3.8269.2327.3349.3243.7086.319 1.0646-.014.7845-.6839 1.4878-2.6582 1.4878-3.1711 0-6.062-1.8068-6.062-6.2718 0-2.6424 1.6288-11.5918 24.8828-11.5918 19.6897 0 28.179 6.3335 28.179 16.1626m-68.2677-3.8275l-21.7998 26.903h19.3531zM85.49 79.4337l-.6381 1.9143h-19.993l.6381-1.9143 3.5096-.9572c.996-.2714 1.4896-.9695 1.5953-2.1258l.8514-9.2527H49.0137l-7.3365 8.9336c-.4742.5764-.7439 1.0224-.7439 1.382 0 .4671.2538.772.8496.9572l3.4039 1.0629-.6381 1.9143H27.7463l.7456-1.9143 3.5079-.8514c1.2321-.298 2.4625-1.2304 3.4038-2.3374l45.4063-53.3827 4.6801-.8514-4.361 54.4456c-.0934 1.1617.0687 1.9038 1.382 2.2334z"/></svg>